<svg id="visual" viewBox="0 0 900 600" width="900" height="600" xmlns="http://www.w3.org/2000/svg" xmlns:xlink="http://www.w3.org/1999/xlink" version="1.1"><rect x="0" y="0" width="900" height="600" fill="#0f6ba6"></rect><path d="M0 378L75 350L150 409L225 375L300 391L375 343L450 340L525 384L600 348L675 345L750 339L825 355L900 346L900 601L825 601L750 601L675 601L600 601L525 601L450 601L375 601L300 601L225 601L150 601L75 601L0 601Z" fill="#f7caca"></path><path d="M0 399L75 434L150 412L225 382L300 377L375 444L450 400L525 395L600 397L675 406L750 407L825 428L900 440L900 601L825 601L750 601L675 601L600 601L525 601L450 601L375 601L300 601L225 601L150 601L75 601L0 601Z" fill="#fec0b6"></path><path d="M0 456L75 449L150 467L225 450L300 442L375 443L450 461L525 454L600 424L675 457L750 431L825 437L900 420L900 601L825 601L750 601L675 601L600 601L525 601L450 601L375 601L300 601L225 601L150 601L75 601L0 601Z" fill="#ffb79d"></path><path d="M0 504L75 485L150 481L225 485L300 468L375 492L450 457L525 507L600 511L675 496L750 511L825 502L900 486L900 601L825 601L750 601L675 601L600 601L525 601L450 601L375 601L300 601L225 601L150 601L75 601L0 601Z" fill="#ffb182"></path><path d="M0 541L75 496L150 538L225 506L300 520L375 500L450 537L525 502L600 499L675 534L750 538L825 517L900 522L900 601L825 601L750 601L675 601L600 601L525 601L450 601L375 601L300 601L225 601L150 601L75 601L0 601Z" fill="#ffaf62"></path><path d="M0 541L75 543L150 565L225 561L300 538L375 548L450 537L525 543L600 574L675 547L750 535L825 541L900 563L900 601L825 601L750 601L675 601L600 601L525 601L450 601L375 601L300 601L225 601L150 601L75 601L0 601Z" fill="#fcaf3c"></path></svg>